<svg width="46" height="34" viewBox="0 0 46 34" fill="none" xmlns="http://www.w3.org/2000/svg">
<g id="Group 72">
<path id="Vector" d="M4.28581 16.5749L11.4287 16.5749L11.4287 21.2817C11.4287 23.8778 8.86616 25.9886 5.71438 25.9886L5.00009 25.9886C3.81259 25.9886 2.85723 26.7755 2.85723 27.7536L2.85723 31.2838C2.85723 32.2619 3.81259 33.0488 5.00009 33.0488L5.71437 33.0488C13.6072 33.0488 20.0001 27.783 20.0001 21.2817L20.0001 3.63106C20.0001 1.68214 18.0804 0.100931 15.7144 0.100931L4.28581 0.10093C1.91974 0.10093 9.48818e-05 1.68214 9.4675e-05 3.63106L9.36759e-05 13.0447C9.3469e-05 14.9937 1.91974 16.5749 4.28581 16.5749ZM30.0001 16.5749L37.1429 16.5749L37.1429 21.2817C37.1429 23.8778 34.5804 25.9886 31.4286 25.9886L30.7144 25.9886C29.5269 25.9886 28.5715 26.7755 28.5715 27.7536L28.5715 31.2838C28.5715 32.2619 29.5269 33.0488 30.7144 33.0488L31.4286 33.0488C39.3215 33.0488 45.7144 27.783 45.7144 21.2817L45.7144 3.63107C45.7144 1.68214 43.7947 0.100933 41.4286 0.100933L30.0001 0.100932C27.634 0.100932 25.7144 1.68214 25.7144 3.63106L25.7144 13.0447C25.7144 14.9937 27.634 16.5749 30.0001 16.5749Z" fill="#007F5F"/>
</g>
</svg>
