<svg width="35" height="35" viewBox="0 0 35 35" fill="none" xmlns="http://www.w3.org/2000/svg">
<g id="004-location-pin" clip-path="url(#clip0_41_332)">
<path id="Vector" d="M17.2252 20.1859C21.1205 20.1859 24.2903 17.0161 24.2903 13.1209C24.2903 9.22561 21.1205 6.05579 17.2252 6.05579C13.33 6.05579 10.1602 9.22561 10.1602 13.1209C10.1602 17.0161 13.33 20.1859 17.2252 20.1859ZM13.9017 12.4073L16.2159 14.7215L20.5488 10.3887L21.976 11.8159L16.2159 17.576L12.4744 13.8345L13.9017 12.4073Z" fill="#007F5F"/>
<path id="Vector_2" d="M17.2254 34.4507L27.7155 21.0021L27.7273 20.9873C29.4405 18.7046 30.3462 15.9842 30.3462 13.1209C30.3462 5.88625 24.46 0 17.2254 0C9.99075 0 4.10449 5.88625 4.10449 13.1209C4.10449 15.9842 5.01023 18.7046 6.73524 21.0021L17.2254 34.4507ZM17.2254 4.03719C22.2343 4.03719 26.309 8.11197 26.309 13.1209C26.309 18.1298 22.2343 22.2045 17.2254 22.2045C12.2165 22.2045 8.14168 18.1298 8.14168 13.1209C8.14168 8.11197 12.2165 4.03719 17.2254 4.03719Z" fill="#007F5F"/>
</g>
<defs>
<clipPath id="clip0_41_332">
<rect width="34.4507" height="34.4507" fill="white"/>
</clipPath>
</defs>
</svg>
