<svg width="85" height="78" viewBox="0 0 85 78" fill="none" xmlns="http://www.w3.org/2000/svg">
<g id="Group 1013">
<rect id="Rectangle 21" x="0.588867" width="84.4" height="78" rx="14" fill="#007F5F" fill-opacity="0.1"/>
<path id="Vector" d="M30.0157 17V42.0654C30.0157 42.4725 29.6393 42.8026 29.1749 42.8026H24.5405L42.6281 58.0005L60.7162 42.8026H56.0814C55.617 42.8026 55.2405 42.4725 55.2405 42.0654V17H30.0157ZM45.1506 18.4744H46.8323V19.9489H45.1506V18.4744ZM41.7873 18.4744H43.469V19.9489H41.7873V18.4744ZM38.424 18.4744H40.1057V19.9489H38.424V18.4744ZM33.3791 19.9489H31.6974V18.4744H33.3791V19.9489ZM36.7424 19.9489H35.0607V18.4744H36.7424V19.9489ZM42.6281 32.4816C45.2397 32.4949 47.4079 34.253 47.6263 36.5348C47.8447 38.8163 46.0415 40.867 43.469 41.2619V42.8026H41.7873V41.2619C39.363 40.9005 37.5877 39.0611 37.5832 36.9049H39.2648C39.2648 38.5334 40.7708 39.8537 42.6281 39.8537C44.4859 39.8537 45.9914 38.5334 45.9914 36.9049C45.9914 35.2764 44.4859 33.956 42.6281 33.956C40.017 33.9427 37.8488 32.1846 37.6304 29.9027C37.4116 27.6213 39.2152 25.5705 41.7873 25.1756V23.635H43.469V25.1756C45.8933 25.537 47.6686 27.3765 47.6731 29.5327H45.9914C45.9914 27.9042 44.4859 26.5838 42.6281 26.5838C40.7708 26.5838 39.2648 27.9042 39.2648 29.5327C39.2648 31.1612 40.7708 32.4816 42.6281 32.4816ZM50.1956 19.9489H48.5139V18.4744H50.1956V19.9489ZM53.5589 19.9489H51.8772V18.4744H53.5589V19.9489Z" fill="#007F5F"/>
</g>
</svg>
