<svg width="85" height="78" viewBox="0 0 85 78" fill="none" xmlns="http://www.w3.org/2000/svg">
<g id="Group 1017">
<rect id="Rectangle 21" x="0.589355" width="84.4" height="78" rx="14" fill="#007F5F" fill-opacity="0.1"/>
<path id="Vector" d="M62.1628 23.7382C62.0788 23.2096 61.645 22.7747 61.0586 22.6318L42.2639 18.049C41.9959 17.9837 41.7129 17.9837 41.4448 18.049L22.6501 22.6318C22.0636 22.7747 21.6298 23.2094 21.5459 23.7382C21.4369 24.4255 18.95 40.6641 25.3287 48.7424C31.6998 56.811 41.0986 58.8787 41.4955 58.9628C41.6135 58.9878 41.7337 59.0001 41.8543 59.0001C41.975 59.0001 42.0952 58.9876 42.2131 58.9628C42.6103 58.8787 52.0091 56.811 58.38 48.7424C64.7586 40.6643 62.2718 24.4256 62.1628 23.7382ZM53.9745 33.2185L41.1546 44.4587C40.8563 44.7202 40.4651 44.8512 40.0741 44.8512C39.6831 44.8512 39.2919 44.7204 38.9936 44.4587L31.0671 37.509C30.7804 37.2578 30.6195 36.9169 30.6195 36.5616C30.6195 36.2062 30.7806 35.8654 31.0671 35.6142L32.641 34.2343C33.2378 33.7112 34.2054 33.711 34.802 34.2343L40.0741 38.8567L50.2396 29.9436C50.5261 29.6923 50.9149 29.5511 51.3201 29.5511C51.7254 29.5511 52.1142 29.6923 52.4007 29.9436L53.9745 31.3235C54.5713 31.8468 54.5713 32.6952 53.9745 33.2185Z" fill="#007F5F"/>
</g>
</svg>
