<svg width="74" height="78" viewBox="0 0 74 78" fill="none" xmlns="http://www.w3.org/2000/svg">
<g id="Group 55">
<rect id="Rectangle 21" width="74" height="78" rx="14" fill="#007F5F" fill-opacity="0.1"/>
<g id="Group 52">
<g id="Group">
<g id="Group_2">
<path id="Vector" d="M52.694 44.2836C51.4934 45.4152 50.0182 46.2506 48.3779 46.6868C49.9153 49.122 50.9653 51.9066 51.3533 54.9191C51.4277 55.5008 51.3203 56.0652 51.0727 56.5769H59.5121C59.7823 56.5769 60.0462 56.4532 60.2341 56.2384C60.4141 56.0339 60.4999 55.7727 60.4679 55.5233C59.8451 50.6739 56.7964 46.5336 52.694 44.2836Z" fill="#007F5F"/>
<path id="Vector_2" d="M42.9615 40.9587C43.2991 41.1985 43.6237 41.4548 43.9448 41.7144C44.2677 41.9758 44.5872 42.2408 44.8926 42.5213C45.7627 43.3161 46.5635 44.1851 47.2863 45.1208C48.6524 44.8716 49.9023 44.2889 50.948 43.4579C51.2111 43.2485 51.463 43.0277 51.6985 42.7896C51.9192 42.5663 52.1235 42.3274 52.3175 42.0815C53.4308 40.6669 54.1007 38.8899 54.1007 36.9551C54.1007 32.3749 50.374 28.6482 45.7938 28.6482C44.8312 28.6482 43.9102 28.8209 43.0497 29.1242C43.3501 30.1825 43.5214 31.2949 43.5214 32.4484C43.5214 35.1951 42.5995 37.725 41.063 39.7675C41.7175 40.1328 42.3528 40.5251 42.9615 40.9587Z" fill="#007F5F"/>
<path id="Vector_3" d="M30.5274 56.5769H32.0788H48.2107C48.6324 56.5769 49.028 56.4012 49.2971 56.0964C49.5336 55.829 49.6391 55.4905 49.5932 55.1451C49.207 52.13 48.0947 49.3669 46.4638 47.0019C46.263 46.7118 46.0595 46.4245 45.844 46.1466C45.5964 45.8297 45.3333 45.5267 45.0674 45.2254C44.3039 44.3649 43.4661 43.5765 42.5596 42.8717C42.2498 42.6302 41.9303 42.4017 41.6048 42.181C41.2871 41.9653 40.9693 41.7524 40.6386 41.5568C40.3911 41.4096 40.1358 41.2746 39.8804 41.1387C39.6302 41.3872 39.3696 41.6244 39.0978 41.8512C38.8701 42.0399 38.6303 42.213 38.3889 42.3861C38.1498 42.5574 37.9023 42.7177 37.6503 42.8708C37.5301 42.9445 37.4125 43.0215 37.2885 43.0906C37.2513 43.1116 37.2167 43.1365 37.1795 43.1565C35.4343 44.1191 33.432 44.6696 31.302 44.6696C27.9601 44.6696 24.9304 43.3183 22.722 41.1377C17.5649 43.8776 13.7984 48.9978 13.0101 55.1389C12.9651 55.4868 13.0715 55.8263 13.3097 56.0972C13.5775 56.4009 13.9728 56.5766 14.3922 56.5766H29.5451H30.5274V56.5769Z" fill="#007F5F"/>
<path id="Vector_4" d="M23.7701 39.6689C23.9891 39.8965 24.2185 40.1138 24.4571 40.3215C26.2927 41.9195 28.6827 42.8951 31.3023 42.8951C33.295 42.8951 35.1527 42.3237 36.7395 41.3517C36.9936 41.195 37.2403 41.0298 37.4792 40.8539C37.7095 40.6842 37.9327 40.5085 38.1466 40.3216C38.1613 40.3087 38.1752 40.2947 38.1899 40.2826C38.4125 40.0871 38.628 39.8834 38.8331 39.6689C39.0504 39.442 39.259 39.2083 39.4555 38.9625C40.8873 37.1744 41.7495 34.9115 41.7495 32.4471C41.7495 31.5689 41.6291 30.7205 41.4231 29.9042C41.3477 29.6055 41.2621 29.3122 41.1616 29.0238C41.063 28.7413 40.9548 28.4629 40.8337 28.1907C39.2002 24.5476 35.5467 22 31.3023 22C25.5422 22 20.8555 26.6867 20.8555 32.4472C20.8555 34.911 21.7173 37.1737 23.1486 38.9618C23.3446 39.2083 23.5529 39.442 23.7701 39.6689Z" fill="#007F5F"/>
</g>
</g>
</g>
</g>
</svg>
